<?xml version="1.0" standalone="no"?><!DOCTYPE svg PUBLIC "-//W3C//DTD SVG 1.1//EN" "http://www.w3.org/Graphics/SVG/1.1/DTD/svg11.dtd"><svg t="1667157624644" class="icon" viewBox="0 0 1024 1024" version="1.1" xmlns="http://www.w3.org/2000/svg" p-id="5418" data-darkreader-inline-fill="" xmlns:xlink="http://www.w3.org/1999/xlink" width="200" height="200"><path d="M896 469.333333h-168.106667a33.28 33.28 0 0 0-8.96 0h-7.253333a55.466667 55.466667 0 0 0-6.4 4.266667 71.253333 71.253333 0 0 0-6.826667 5.12 42.666667 42.666667 0 0 0-3.84 5.546667 56.32 56.32 0 0 0-5.12 8.533333l-68.266666 188.16-177.92-482.133333a42.666667 42.666667 0 0 0-80.213334 0L264.533333 469.333333H128a42.666667 42.666667 0 0 0 0 85.333334H311.466667a36.693333 36.693333 0 0 0 6.826666-4.266667 71.253333 71.253333 0 0 0 6.826667-5.12l3.84-5.546667a42.666667 42.666667 0 0 0 5.12-8.533333l69.12-193.28 177.493333 487.253333a42.666667 42.666667 0 0 0 40.106667 28.16 42.666667 42.666667 0 0 0 40.106667-28.16l98.133333-270.506666H896a42.666667 42.666667 0 0 0 0-85.333334z" p-id="5419"></path></svg>